<svg xmlns="http://www.w3.org/2000/svg" width="164" height="25" viewBox="0 0 164 25">
  <path fill-rule="evenodd" d="M657.984,63 L662.592,63 L662.592,40.952 L655.744,40.952 C653.888,46.584 651.488,54.328 650.944,57.208 L650.912,57.208 C650.24,53.944 648.32,46.712 646.592,40.952 L639.488,40.952 L639.488,63 L643.84,63 L643.84,55.096 C643.84,51.32 643.744,46.776 643.552,44.184 L643.712,44.184 C644.672,48.6 646.944,56.952 648.576,63 L652.64,63 C654.752,56.088 656.96,48.76 657.984,44.248 L658.144,44.248 C658.048,46.744 657.984,50.968 657.984,54.712 L657.984,63 Z M681.216,46.424 L676.64,46.424 L676.64,55.256 C676.64,58.52 675.776,59.64 673.696,59.64 C671.712,59.64 671.136,58.136 671.136,56.312 L671.136,46.424 L666.56,46.424 L666.56,57.24 C666.56,61.336 668.704,63.384 672.064,63.384 C674.208,63.384 675.648,62.744 676.64,61.08 C676.672,61.656 676.704,62.552 676.768,63 L681.248,63 C681.216,61.528 681.216,59.768 681.216,58.2 L681.216,46.424 Z M683.968,58.008 C684.352,60.952 686.4,63.384 691.456,63.384 C696.48,63.384 698.592,60.888 698.592,58.136 C698.592,55.704 697.792,53.816 692.256,52.536 C689.568,51.896 689.056,51.512 689.056,50.68 C689.056,49.944 689.568,49.272 691.072,49.272 C693.216,49.272 693.632,50.424 693.792,51.032 L698.144,51.032 C698.016,48.792 696.288,46.04 691.264,46.04 C686.272,46.04 684.576,48.632 684.576,51.064 C684.576,53.4 685.44,55.064 690.848,56.408 C693.216,56.984 693.92,57.4 693.92,58.456 C693.92,59.48 693.312,60.088 691.616,60.088 C689.92,60.088 688.832,59.352 688.48,58.008 L683.968,58.008 Z M699.808,49.88 L702.368,49.88 L702.368,58.584 C702.368,61.496 703.424,63.224 706.656,63.224 C707.584,63.224 708.832,63.224 709.728,62.904 L709.728,59.768 C709.408,59.8 708.96,59.8 708.704,59.8 C707.328,59.8 706.944,59.32 706.944,58.072 L706.944,49.88 L710.208,49.88 L710.208,46.424 L706.944,46.424 L706.944,41.944 L702.368,41.944 L702.368,46.424 L699.808,46.424 L699.808,49.88 Z M721.408,54.168 L718.272,54.168 L718.272,63 L713.6,63 L713.6,40.952 L723.296,40.952 C728.096,40.952 730.688,43.576 730.688,47 C730.688,49.944 729.088,51.544 727.488,52.216 C728.576,52.632 730.24,53.752 730.24,57.72 L730.24,58.808 C730.24,60.28 730.24,61.976 730.56,63 L726.016,63 C725.632,62.04 725.568,60.376 725.568,58.04 L725.568,57.72 C725.568,55.32 724.96,54.168 721.408,54.168 Z M718.272,44.728 L718.272,50.36 L722.272,50.36 C724.864,50.36 725.888,49.368 725.888,47.544 C725.888,45.752 724.704,44.728 722.368,44.728 L718.272,44.728 Z M748.608,55.704 L737.664,55.704 C737.664,57.784 738.72,59.8 740.992,59.8 C742.912,59.8 743.456,59.032 743.904,58.04 L748.48,58.04 C747.904,60.056 746.08,63.384 740.896,63.384 C735.424,63.384 733.056,59.32 733.056,54.968 C733.056,49.752 735.712,46.04 741.056,46.04 C746.72,46.04 748.672,50.168 748.672,54.296 C748.672,54.872 748.672,55.224 748.608,55.704 Z M737.76,52.888 L744.064,52.888 C744.032,50.968 743.264,49.336 741.024,49.336 C738.848,49.336 737.952,50.84 737.76,52.888 Z M765.536,51.768 L765.536,58.712 C765.536,60.312 765.664,62.616 765.76,63 L761.376,63 C761.248,62.68 761.152,61.784 761.152,61.368 C760.544,62.296 759.424,63.384 756.48,63.384 C752.48,63.384 750.816,60.76 750.816,58.2 C750.816,54.424 753.824,52.664 758.688,52.664 L761.056,52.664 L761.056,51.672 C761.056,50.488 760.64,49.336 758.496,49.336 C756.576,49.336 756.128,50.136 755.936,51.352 L751.584,51.352 C751.808,48.408 753.632,46.04 758.688,46.04 C763.104,46.072 765.536,47.8 765.536,51.768 Z M761.056,55.896 L761.056,55.448 L759.2,55.448 C756.416,55.448 755.392,56.312 755.392,57.912 C755.392,59.096 756.128,60.12 757.792,60.12 C760.704,60.12 761.056,58.072 761.056,55.896 Z M780.192,39.64 L784.768,39.64 L784.768,58.456 C784.768,59.96 784.768,61.496 784.8,63 L780.416,63 C780.32,62.488 780.224,61.656 780.192,61.272 C779.392,62.584 777.952,63.384 775.488,63.384 C771.296,63.384 768.64,60.024 768.64,54.84 C768.64,49.752 771.456,46.04 776.16,46.04 C778.56,46.04 779.84,46.904 780.192,47.64 L780.192,39.64 Z M773.344,54.744 C773.344,57.976 774.592,59.704 776.864,59.704 C780,59.704 780.384,57.08 780.384,54.712 C780.384,51.864 779.968,49.72 776.96,49.72 C774.56,49.72 773.344,51.608 773.344,54.744 Z M787.552,58.008 C787.936,60.952 789.984,63.384 795.04,63.384 C800.064,63.384 802.176,60.888 802.176,58.136 C802.176,55.704 801.376,53.816 795.84,52.536 C793.152,51.896 792.64,51.512 792.64,50.68 C792.64,49.944 793.152,49.272 794.656,49.272 C796.8,49.272 797.216,50.424 797.376,51.032 L801.728,51.032 C801.6,48.792 799.872,46.04 794.848,46.04 C789.856,46.04 788.16,48.632 788.16,51.064 C788.16,53.4 789.024,55.064 794.432,56.408 C796.8,56.984 797.504,57.4 797.504,58.456 C797.504,59.48 796.896,60.088 795.2,60.088 C793.504,60.088 792.416,59.352 792.064,58.008 L787.552,58.008 Z" transform="translate(-639 -39)"/>
</svg>
