<svg xmlns="http://www.w3.org/2000/svg" width="24" height="24" viewBox="0 0 24 24">
  <g fill="none" fill-rule="evenodd">
    <rect width="24" height="24"/>
    <path fill="#000" fill-rule="nonzero" d="M22.8000009,10.4000003 L4.62000018,10.4000003 L11.0400004,4.04000008 C11.5200005,3.56000006 11.5200005,2.84000003 11.0400004,2.36000001 C10.5600004,1.88 9.84000039,1.88 9.36000037,2.36000001 L0,11.6000004 L9.42000037,20.8400007 C9.66000038,21.0800008 9.9600004,21.2000008 10.2600004,21.2000008 C10.5600004,21.2000008 10.8600004,21.0800008 11.1000004,20.8400007 C11.5800005,20.3600007 11.5800005,19.5800007 11.1000004,19.1600007 L4.62000018,12.8000004 L22.8000009,12.8000004 C23.4600009,12.8000004 24.000001,12.2600004 24.000001,11.6000004 C24.000001,10.9400004 23.4600009,10.4000003 22.8000009,10.4000003 Z" transform="rotate(-180 12 11.6)"/>
  </g>
</svg>
